{"accessors" : [{"bufferView" : 0, "byteOffset" : 0, "componentType" : 5123, "count" : 948, "type" : "SCALAR", "max" : [820], "min" : [0]}, {"bufferView" : 1, "byteOffset" : 0, "componentType" : 5126, "count" : 821, "type" : "VEC3", "max" : [0.605006992816925, 0.4426639974117279, -0.3304460048675537], "min" : [-8.721233367919922, -0.5826230049133301, -15.012080192565918], "name" : "POSITION"}, {"bufferView" : 1, "byteOffset" : 12, "componentType" : 5126, "count" : 821, "type" : "VEC2", "max" : [0.9197884798049927, -0.001953125], "min" : [0.001953125, -0.998046875], "name" : "TEXCOORD_0"}, {"bufferView" : 1, "byteOffset" : 20, "componentType" : 5126, "count" : 821, "type" : "VEC3", "max" : [1.0000044107437134, 1.0000044107437134, 1.0000044107437134], "min" : [-0.9992108941078186, -1.0000044107437134, -1.0000044107437134], "name" : "NORMAL"}], "asset" : {"generator" : "Aspose.3D 23.9.0", "version" : "2.0"}, "buffers" : [{"uri" : "data:application/octet-stream;base64,", "byteLength" : 32240}], "bufferViews" : [{"buffer" : 0, "byteOffset" : 0, "byteLength" : 1896, "target" : 34963}, {"buffer" : 0, "byteOffset" : 1900, "byteLength" : 30336, "byteStride" : 32, "target" : 34962}], "meshes" : [{"primitives" : [{"attributes" : {"POSITION" : 1, "TEXCOORD_0" : 2, "NORMAL" : 3}, "indices" : 0, "mode" : 4}], "name" : ""}], "nodes" : [{"mesh" : 0, "name" : "pCube1"}], "scene" : 0, "scenes" : [{"nodes" : [0]}]}